<?xml version="1.0" encoding="UTF-8" standalone="no"?>
<svg
   xmlns:dc="http://purl.org/dc/elements/1.1/"
   xmlns:cc="http://creativecommons.org/ns#"
   xmlns:rdf="http://www.w3.org/1999/02/22-rdf-syntax-ns#"
   xmlns:svg="http://www.w3.org/2000/svg"
   xmlns="http://www.w3.org/2000/svg"
   xmlns:sodipodi="http://sodipodi.sourceforge.net/DTD/sodipodi-0.dtd"
   xmlns:inkscape="http://www.inkscape.org/namespaces/inkscape"
   id="visual"
   viewBox="0 0 960 540"
   width="960"
   height="540"
   version="1.1"
   sodipodi:docname="stacked-peaks.svg"
   inkscape:version="0.92.5 (2060ec1f9f, 2020-04-08)">
  <metadata
     id="metadata17">
    <rdf:RDF>
      <cc:Work
         rdf:about="">
        <dc:format>image/svg+xml</dc:format>
        <dc:type
           rdf:resource="http://purl.org/dc/dcmitype/StillImage" />
        <dc:title></dc:title>
      </cc:Work>
    </rdf:RDF>
  </metadata>
  <defs
     id="defs15" />
  <sodipodi:namedview
     pagecolor="#ffffff"
     bordercolor="#000000"
     borderopacity="0.25"
     objecttolerance="10"
     gridtolerance="10"
     guidetolerance="10"
     inkscape:pageopacity="0"
     inkscape:pageshadow="2"
     inkscape:window-width="2669"
     inkscape:window-height="2094"
     id="namedview13"
     showgrid="false"
     inkscape:zoom="1.2361274"
     inkscape:cx="505.87532"
     inkscape:cy="429.56564"
     inkscape:window-x="1156"
     inkscape:window-y="0"
     inkscape:window-maximized="0"
     inkscape:current-layer="visual" />
  <path
     d="M0 104L87 158L175 125L262 131L349 163L436 163L524 168L611 174L698 136L785 104L873 125L960 147L960 0L873 0L785 0L698 0L611 0L524 0L436 0L349 0L262 0L175 0L87 0L0 0Z"
     fill="#003223"
     id="path2"
     style="fill:#eff6ff;fill-opacity:1" />
  <path
     d="M0 185L87 195L175 212L262 217L349 206L436 239L524 233L611 222L698 185L785 147L873 190L960 190L960 145L873 123L785 102L698 134L611 172L524 166L436 161L349 161L262 129L175 123L87 156L0 102Z"
     fill="#013b2d"
     id="path4"
     style="fill:#dbeafe;fill-opacity:1" />
  <path
     d="M0 228L87 249L175 287L262 309L349 303L436 336L524 298L611 282L698 260L785 255L873 287L960 255L960 188L873 188L785 145L698 183L611 220L524 231L436 237L349 204L262 215L175 210L87 193L0 183Z"
     fill="#014537"
     id="path6"
     style="fill:#bfdbfe;fill-opacity:1" />
  <path
     d="M0 357L87 395L175 347L262 368L349 428L436 449L524 363L611 390L698 352L785 379L873 368L960 401L960 253L873 285L785 253L698 258L611 280L524 296L436 334L349 301L262 307L175 285L87 247L0 226Z"
     fill="#024f42"
     id="path8"
     style="fill:#60a5fa;fill-opacity:1" />
  <path
     d="M0 541L87 541L175 541L262 541L349 541L436 541L524 541L611 541L698 541L785 541L873 541L960 541L960 399L873 366L785 377L698 350L611 388L524 361L436 447L349 426L262 366L175 345L87 393L0 355Z"
     fill="#02594e"
     id="path10"
     style="fill:#2563eb;fill-opacity:1" />
</svg>
